<svg width="20" height="20" viewBox="0 0 20 20" fill="none" xmlns="http://www.w3.org/2000/svg">
<path d="M19.0934 16.596L14.549 12.0511C15.2574 10.8882 15.6311 9.55233 15.6288 8.19059C15.6288 4.08109 12.0681 0.521202 7.95899 0.521202C6.98205 0.521044 6.01464 0.713369 5.11203 1.08719C4.20942 1.46102 3.3893 2.00901 2.69849 2.69988C2.00769 3.39075 1.45974 4.21096 1.08596 5.11365C0.712169 6.01635 0.519862 6.98385 0.52002 7.96088C0.52002 12.0692 4.08077 15.6303 8.18868 15.6303C9.50541 15.6315 10.7986 15.281 11.9346 14.6152L16.5031 19.1866C16.7179 19.4009 17.009 19.5212 17.3124 19.5212C17.6159 19.5212 17.9069 19.4009 18.1217 19.1866L19.2557 18.0524C19.7019 17.6063 19.5395 17.0422 19.0934 16.596ZM2.80967 7.96088C2.80952 7.2845 2.94259 6.61471 3.2013 5.98977C3.46 5.36483 3.83927 4.79697 4.31745 4.31864C4.79562 3.84031 5.36333 3.46087 5.98815 3.20199C6.61298 2.94312 7.28267 2.80987 7.95899 2.80987C10.8042 2.80987 13.3392 5.34389 13.3392 8.19059C13.3389 9.55663 12.7961 10.8666 11.8303 11.8326C10.8645 12.7985 9.55458 13.3413 8.18868 13.3416C5.34345 13.3404 2.80967 10.8052 2.80967 7.96088V7.96088Z" fill="black"/>
</svg>
